<mxfile host="app.diagrams.net" agent="Mozilla/5.0 (Windows NT 10.0; Win64; x64) AppleWebKit/537.36 (KHTML, like Gecko) Chrome/134.0.0.0 Safari/537.36" version="26.0.16">
  <diagram name="Página-1" id="I99F2NskH2YmtPhK2gz2">
    <mxGraphModel dx="1500" dy="804" grid="0" gridSize="10" guides="1" tooltips="1" connect="1" arrows="1" fold="1" page="1" pageScale="1" pageWidth="827" pageHeight="1169" background="#66FFFF" math="0" shadow="0">
      <root>
        <mxCell id="0" />
        <mxCell id="1" parent="0" />
        <mxCell id="4FD4NFaw8G5c-ec8fT4B-5" value="Compra" style="shape=rhombus;perimeter=rhombusPerimeter;whiteSpace=wrap;html=1;align=center;fillColor=#dae8fc;strokeColor=#6c8ebf;" parent="1" vertex="1">
          <mxGeometry x="360" y="495" width="120" height="60" as="geometry" />
        </mxCell>
        <mxCell id="4FD4NFaw8G5c-ec8fT4B-8" value="" style="endArrow=none;html=1;rounded=0;exitX=1.004;exitY=0.329;exitDx=0;exitDy=0;entryX=0;entryY=0.5;entryDx=0;entryDy=0;exitPerimeter=0;" parent="1" source="4FD4NFaw8G5c-ec8fT4B-50" target="4FD4NFaw8G5c-ec8fT4B-5" edge="1">
          <mxGeometry relative="1" as="geometry">
            <mxPoint x="210" y="525" as="sourcePoint" />
            <mxPoint x="460" y="415" as="targetPoint" />
          </mxGeometry>
        </mxCell>
        <mxCell id="4FD4NFaw8G5c-ec8fT4B-11" value="" style="endArrow=none;html=1;rounded=0;exitX=1;exitY=0.5;exitDx=0;exitDy=0;entryX=-0.015;entryY=0.364;entryDx=0;entryDy=0;entryPerimeter=0;" parent="1" source="4FD4NFaw8G5c-ec8fT4B-5" target="4FD4NFaw8G5c-ec8fT4B-54" edge="1">
          <mxGeometry relative="1" as="geometry">
            <mxPoint x="340" y="605" as="sourcePoint" />
            <mxPoint x="690" y="525" as="targetPoint" />
          </mxGeometry>
        </mxCell>
        <mxCell id="4FD4NFaw8G5c-ec8fT4B-12" value="&lt;div&gt;&lt;br&gt;&lt;/div&gt;&lt;div&gt;(1,N)&lt;br&gt;&lt;/div&gt;" style="text;html=1;align=center;verticalAlign=middle;whiteSpace=wrap;rounded=0;" parent="1" vertex="1">
          <mxGeometry x="480" y="478" width="60" height="30" as="geometry" />
        </mxCell>
        <mxCell id="4FD4NFaw8G5c-ec8fT4B-49" value="&lt;div&gt;Pessoa Física&lt;/div&gt;" style="swimlane;childLayout=stackLayout;horizontal=1;startSize=50;horizontalStack=0;rounded=1;fontSize=14;fontStyle=0;strokeWidth=2;resizeParent=0;resizeLast=1;shadow=0;dashed=0;align=center;arcSize=4;whiteSpace=wrap;html=1;fillColor=#fff2cc;strokeColor=#d6b656;" parent="1" vertex="1">
          <mxGeometry x="14" y="430" width="270" height="190" as="geometry" />
        </mxCell>
        <mxCell id="4FD4NFaw8G5c-ec8fT4B-50" value="&lt;div&gt;Nome: Allan, Paulo, Thales&lt;/div&gt;&lt;div&gt;CPF: 0912849213, 0123478579, 9487571&lt;/div&gt;&lt;div&gt;ID: 01, 02, 03&lt;/div&gt;&lt;div&gt;Cidade, Campinas, Valinhos, São Paulo&lt;/div&gt;&lt;div&gt;Idade: 20, 21, 15&lt;/div&gt;&lt;div&gt;CEP: &lt;span class=&quot;LrzXr&quot;&gt;13013-040, 01021200,54120333&lt;/span&gt;&lt;/div&gt;&lt;div&gt;&lt;span class=&quot;LrzXr&quot;&gt;Método de pagamento, crédito, débito, Pix&lt;br&gt;&lt;/span&gt;&lt;/div&gt;&lt;div&gt;&lt;br&gt;&lt;/div&gt;" style="align=left;strokeColor=#d79b00;fillColor=#ffe6cc;spacingLeft=4;spacingRight=4;fontSize=12;verticalAlign=top;resizable=0;rotatable=0;part=1;html=1;whiteSpace=wrap;" parent="4FD4NFaw8G5c-ec8fT4B-49" vertex="1">
          <mxGeometry y="50" width="270" height="140" as="geometry" />
        </mxCell>
        <mxCell id="4FD4NFaw8G5c-ec8fT4B-53" value="Produto" style="swimlane;childLayout=stackLayout;horizontal=1;startSize=50;horizontalStack=0;rounded=1;fontSize=14;fontStyle=0;strokeWidth=2;resizeParent=0;resizeLast=1;shadow=0;dashed=0;align=center;arcSize=4;whiteSpace=wrap;html=1;fillColor=#fff2cc;strokeColor=#d6b656;" parent="1" vertex="1">
          <mxGeometry x="540" y="425" width="270" height="190" as="geometry" />
        </mxCell>
        <mxCell id="4FD4NFaw8G5c-ec8fT4B-54" value="&lt;div&gt;ID: 01, 02, 04&lt;/div&gt;&lt;div&gt;Nome: Creme de Leite, Leite, Pão&lt;/div&gt;&lt;div&gt;Marca: Panco, Sadia, Moça&lt;/div&gt;&lt;div&gt;Preço: 20, 40, 50&lt;/div&gt;&lt;div&gt;Data de validade: 10/02, 25/12, 10/03&lt;/div&gt;&lt;div&gt;Data de fabricação: 10/02, 10/03, 10/04&lt;/div&gt;&lt;div&gt;&lt;br&gt;&lt;/div&gt;" style="align=left;strokeColor=#d79b00;fillColor=#ffe6cc;spacingLeft=4;spacingRight=4;fontSize=12;verticalAlign=top;resizable=0;rotatable=0;part=1;html=1;whiteSpace=wrap;" parent="4FD4NFaw8G5c-ec8fT4B-53" vertex="1">
          <mxGeometry y="50" width="270" height="140" as="geometry" />
        </mxCell>
        <mxCell id="4FD4NFaw8G5c-ec8fT4B-55" value="Compra" style="shape=rhombus;perimeter=rhombusPerimeter;whiteSpace=wrap;html=1;align=center;fillColor=#dae8fc;strokeColor=#6c8ebf;" parent="1" vertex="1">
          <mxGeometry x="351" y="250" width="120" height="60" as="geometry" />
        </mxCell>
        <mxCell id="4FD4NFaw8G5c-ec8fT4B-56" value="" style="endArrow=none;html=1;rounded=0;exitX=1.004;exitY=0.329;exitDx=0;exitDy=0;entryX=0;entryY=0.5;entryDx=0;entryDy=0;exitPerimeter=0;" parent="1" source="4FD4NFaw8G5c-ec8fT4B-60" target="4FD4NFaw8G5c-ec8fT4B-55" edge="1">
          <mxGeometry relative="1" as="geometry">
            <mxPoint x="201" y="280" as="sourcePoint" />
            <mxPoint x="451" y="170" as="targetPoint" />
          </mxGeometry>
        </mxCell>
        <mxCell id="4FD4NFaw8G5c-ec8fT4B-57" value="" style="endArrow=none;html=1;rounded=0;exitX=1;exitY=0.5;exitDx=0;exitDy=0;entryX=-0.015;entryY=0.364;entryDx=0;entryDy=0;entryPerimeter=0;" parent="1" source="4FD4NFaw8G5c-ec8fT4B-55" target="4FD4NFaw8G5c-ec8fT4B-62" edge="1">
          <mxGeometry relative="1" as="geometry">
            <mxPoint x="331" y="360" as="sourcePoint" />
            <mxPoint x="681" y="280" as="targetPoint" />
          </mxGeometry>
        </mxCell>
        <mxCell id="4FD4NFaw8G5c-ec8fT4B-58" value="&lt;div&gt;&lt;br&gt;&lt;/div&gt;&lt;div&gt;(1,N)&lt;br&gt;&lt;/div&gt;" style="text;html=1;align=center;verticalAlign=middle;whiteSpace=wrap;rounded=0;" parent="1" vertex="1">
          <mxGeometry x="456.89" y="240" width="60" height="30" as="geometry" />
        </mxCell>
        <mxCell id="4FD4NFaw8G5c-ec8fT4B-59" value="Pessoa Jurídica" style="swimlane;childLayout=stackLayout;horizontal=1;startSize=50;horizontalStack=0;rounded=1;fontSize=14;fontStyle=0;strokeWidth=2;resizeParent=0;resizeLast=1;shadow=0;dashed=0;align=center;arcSize=4;whiteSpace=wrap;html=1;fillColor=#fff2cc;strokeColor=#d6b656;" parent="1" vertex="1">
          <mxGeometry x="10" y="185" width="270" height="190" as="geometry" />
        </mxCell>
        <mxCell id="4FD4NFaw8G5c-ec8fT4B-60" value="&lt;div&gt;Nome: Allan, Paulo, Thales&lt;/div&gt;&lt;div&gt;CNPJ: 0912849213, 0123478579, 9487571&lt;/div&gt;&lt;div&gt;ID: 01, 02, 03&lt;/div&gt;&lt;div&gt;Cidade, Campinas, Valinhos, São Paulo&lt;/div&gt;&lt;div&gt;Idade: 20, 21, 15&lt;/div&gt;&lt;div&gt;CEP: &lt;span class=&quot;LrzXr&quot;&gt;13013-040, 01021200,54120333&lt;/span&gt;&lt;/div&gt;&lt;div&gt;&lt;span class=&quot;LrzXr&quot;&gt;Método de pagamento, crédito, débito, Pix&lt;br&gt;&lt;/span&gt;&lt;/div&gt;&lt;div&gt;&lt;br&gt;&lt;/div&gt;" style="align=left;strokeColor=#d79b00;fillColor=#ffe6cc;spacingLeft=4;spacingRight=4;fontSize=12;verticalAlign=top;resizable=0;rotatable=0;part=1;html=1;whiteSpace=wrap;" parent="4FD4NFaw8G5c-ec8fT4B-59" vertex="1">
          <mxGeometry y="50" width="270" height="140" as="geometry" />
        </mxCell>
        <mxCell id="4FD4NFaw8G5c-ec8fT4B-61" value="Produto" style="swimlane;childLayout=stackLayout;horizontal=1;startSize=50;horizontalStack=0;rounded=1;fontSize=14;fontStyle=0;strokeWidth=2;resizeParent=0;resizeLast=1;shadow=0;dashed=0;align=center;arcSize=4;whiteSpace=wrap;html=1;fillColor=#fff2cc;strokeColor=#d6b656;" parent="1" vertex="1">
          <mxGeometry x="535" y="180" width="270" height="190" as="geometry" />
        </mxCell>
        <mxCell id="4FD4NFaw8G5c-ec8fT4B-62" value="&lt;div&gt;ID: 01, 02, 04&lt;/div&gt;&lt;div&gt;Nome: Creme de Leite, Leite, Pão&lt;/div&gt;&lt;div&gt;Marca: Panco, Sadia, Moça&lt;/div&gt;&lt;div&gt;Preço: 20, 40, 50&lt;/div&gt;&lt;div&gt;Data de validade: 10/02, 25/12, 10/03&lt;/div&gt;&lt;div&gt;Data de fabricação: 10/02, 10/03, 10/04&lt;/div&gt;&lt;div&gt;&lt;br&gt;&lt;/div&gt;" style="align=left;strokeColor=#d79b00;fillColor=#ffe6cc;spacingLeft=4;spacingRight=4;fontSize=12;verticalAlign=top;resizable=0;rotatable=0;part=1;html=1;whiteSpace=wrap;" parent="4FD4NFaw8G5c-ec8fT4B-61" vertex="1">
          <mxGeometry y="50" width="270" height="140" as="geometry" />
        </mxCell>
        <mxCell id="4FD4NFaw8G5c-ec8fT4B-63" value="Produto" style="swimlane;childLayout=stackLayout;horizontal=1;startSize=50;horizontalStack=0;rounded=1;fontSize=14;fontStyle=0;strokeWidth=2;resizeParent=0;resizeLast=1;shadow=0;dashed=0;align=center;arcSize=4;whiteSpace=wrap;html=1;fillColor=#fff2cc;strokeColor=#d6b656;" parent="1" vertex="1">
          <mxGeometry x="7" y="676" width="270" height="190" as="geometry" />
        </mxCell>
        <mxCell id="4FD4NFaw8G5c-ec8fT4B-64" value="&lt;div&gt;ID: 01, 02, 04&lt;/div&gt;&lt;div&gt;Nome: Creme de Leite, Leite, Pão&lt;/div&gt;&lt;div&gt;Marca: Panco, Sadia, Moça&lt;/div&gt;&lt;div&gt;Preço: 20, 40, 50&lt;/div&gt;&lt;div&gt;Data de validade: 10/02, 25/12, 10/03&lt;/div&gt;&lt;div&gt;Data de fabricação: 10/02, 10/03, 10/04&lt;/div&gt;&lt;div&gt;&lt;br&gt;&lt;/div&gt;" style="align=left;strokeColor=#d79b00;fillColor=#ffe6cc;spacingLeft=4;spacingRight=4;fontSize=12;verticalAlign=top;resizable=0;rotatable=0;part=1;html=1;whiteSpace=wrap;" parent="4FD4NFaw8G5c-ec8fT4B-63" vertex="1">
          <mxGeometry y="50" width="270" height="140" as="geometry" />
        </mxCell>
        <mxCell id="4FD4NFaw8G5c-ec8fT4B-66" value="" style="endArrow=none;html=1;rounded=0;entryX=0;entryY=0.5;entryDx=0;entryDy=0;exitX=1;exitY=0.5;exitDx=0;exitDy=0;" parent="1" source="4FD4NFaw8G5c-ec8fT4B-64" target="4FD4NFaw8G5c-ec8fT4B-67" edge="1">
          <mxGeometry relative="1" as="geometry">
            <mxPoint x="260" y="780" as="sourcePoint" />
            <mxPoint x="266.89" y="930" as="targetPoint" />
          </mxGeometry>
        </mxCell>
        <mxCell id="4FD4NFaw8G5c-ec8fT4B-67" value="Está no" style="shape=rhombus;perimeter=rhombusPerimeter;whiteSpace=wrap;html=1;align=center;fillColor=#dae8fc;strokeColor=#6c8ebf;" parent="1" vertex="1">
          <mxGeometry x="287" y="769" width="120" height="60" as="geometry" />
        </mxCell>
        <mxCell id="4FD4NFaw8G5c-ec8fT4B-68" value="" style="endArrow=none;html=1;rounded=0;exitX=1;exitY=0.5;exitDx=0;exitDy=0;entryX=0;entryY=0.5;entryDx=0;entryDy=0;" parent="1" source="4FD4NFaw8G5c-ec8fT4B-67" target="4FD4NFaw8G5c-ec8fT4B-74" edge="1">
          <mxGeometry relative="1" as="geometry">
            <mxPoint x="136.89" y="960" as="sourcePoint" />
            <mxPoint x="620" y="800" as="targetPoint" />
          </mxGeometry>
        </mxCell>
        <mxCell id="4FD4NFaw8G5c-ec8fT4B-69" value="(1,1)" style="text;html=1;align=center;verticalAlign=middle;whiteSpace=wrap;rounded=0;" parent="1" vertex="1">
          <mxGeometry x="369" y="746" width="60" height="30" as="geometry" />
        </mxCell>
        <mxCell id="4FD4NFaw8G5c-ec8fT4B-73" value="SIte" style="swimlane;childLayout=stackLayout;horizontal=1;startSize=50;horizontalStack=0;rounded=1;fontSize=14;fontStyle=0;strokeWidth=2;resizeParent=0;resizeLast=1;shadow=0;dashed=0;align=center;arcSize=4;whiteSpace=wrap;html=1;fillColor=#fff2cc;strokeColor=#d6b656;" parent="1" vertex="1">
          <mxGeometry x="418" y="687" width="400" height="190" as="geometry" />
        </mxCell>
        <mxCell id="4FD4NFaw8G5c-ec8fT4B-74" value="&lt;div&gt;Marca: Mercado Livre, Amazon, Shopee&lt;br&gt;&lt;/div&gt;&lt;div&gt;Endereço:www.amazon.com,www.mercadolivre.com,www.shopee.com&lt;/div&gt;&lt;div&gt;Produto: Videogame, Pão, Caderno&lt;/div&gt;&lt;div&gt;Aplicativo: Amazon Shopping, Mercado Livre, Shopee&lt;/div&gt;&lt;div&gt;Promoção: 50%, 15%, 25%&lt;/div&gt;&lt;div&gt;Código: HTML, PHP, CSS&lt;br&gt;&lt;/div&gt;&lt;div&gt;&lt;br&gt;&lt;/div&gt;" style="align=left;strokeColor=#d79b00;fillColor=#ffe6cc;spacingLeft=4;spacingRight=4;fontSize=12;verticalAlign=top;resizable=0;rotatable=0;part=1;html=1;whiteSpace=wrap;" parent="4FD4NFaw8G5c-ec8fT4B-73" vertex="1">
          <mxGeometry y="50" width="400" height="140" as="geometry" />
        </mxCell>
        <mxCell id="4FD4NFaw8G5c-ec8fT4B-77" value="SIte" style="swimlane;childLayout=stackLayout;horizontal=1;startSize=50;horizontalStack=0;rounded=1;fontSize=14;fontStyle=0;strokeWidth=2;resizeParent=0;resizeLast=1;shadow=0;dashed=0;align=center;arcSize=4;whiteSpace=wrap;html=1;fillColor=#fff2cc;strokeColor=#d6b656;" parent="1" vertex="1">
          <mxGeometry x="423" y="924" width="400" height="190" as="geometry" />
        </mxCell>
        <mxCell id="4FD4NFaw8G5c-ec8fT4B-78" value="&lt;div&gt;Marca: Mercado Livre, Amazon, Shopee&lt;br&gt;&lt;/div&gt;&lt;div&gt;Endereço:www.amazon.com,www.mercadolivre.com,www.shopee.com&lt;/div&gt;&lt;div&gt;Produto: Videogame, Pão, Caderno&lt;/div&gt;&lt;div&gt;Aplicativo: Amazon Shopping, Mercado Livre, Shopee&lt;/div&gt;&lt;div&gt;Promoção: 50%, 15%, 25%&lt;/div&gt;&lt;div&gt;Código: HTML, PHP, CSS&lt;br&gt;&lt;/div&gt;&lt;div&gt;&lt;br&gt;&lt;/div&gt;" style="align=left;strokeColor=#d79b00;fillColor=#ffe6cc;spacingLeft=4;spacingRight=4;fontSize=12;verticalAlign=top;resizable=0;rotatable=0;part=1;html=1;whiteSpace=wrap;" parent="4FD4NFaw8G5c-ec8fT4B-77" vertex="1">
          <mxGeometry y="50" width="400" height="140" as="geometry" />
        </mxCell>
        <mxCell id="4FD4NFaw8G5c-ec8fT4B-80" value="Aluga" style="shape=rhombus;perimeter=rhombusPerimeter;whiteSpace=wrap;html=1;align=center;fillColor=#dae8fc;strokeColor=#6c8ebf;" parent="1" vertex="1">
          <mxGeometry x="287" y="1013" width="120" height="60" as="geometry" />
        </mxCell>
        <mxCell id="4FD4NFaw8G5c-ec8fT4B-81" value="" style="endArrow=none;html=1;rounded=0;exitX=0;exitY=0.5;exitDx=0;exitDy=0;entryX=1;entryY=0.5;entryDx=0;entryDy=0;" parent="1" source="4FD4NFaw8G5c-ec8fT4B-80" target="4FD4NFaw8G5c-ec8fT4B-87" edge="1">
          <mxGeometry relative="1" as="geometry">
            <mxPoint x="-80" y="1020" as="sourcePoint" />
            <mxPoint x="180" y="1019.9999999999998" as="targetPoint" />
          </mxGeometry>
        </mxCell>
        <mxCell id="4FD4NFaw8G5c-ec8fT4B-82" value="(1,1)" style="text;html=1;align=center;verticalAlign=middle;whiteSpace=wrap;rounded=0;" parent="1" vertex="1">
          <mxGeometry x="264" y="990" width="60" height="30" as="geometry" />
        </mxCell>
        <mxCell id="4FD4NFaw8G5c-ec8fT4B-86" value="Empresa" style="swimlane;childLayout=stackLayout;horizontal=1;startSize=50;horizontalStack=0;rounded=1;fontSize=14;fontStyle=0;strokeWidth=2;resizeParent=0;resizeLast=1;shadow=0;dashed=0;align=center;arcSize=4;whiteSpace=wrap;html=1;fillColor=#fff2cc;strokeColor=#d6b656;" parent="1" vertex="1">
          <mxGeometry x="10" y="924" width="260" height="190" as="geometry" />
        </mxCell>
        <mxCell id="4FD4NFaw8G5c-ec8fT4B-87" value="&lt;div&gt;Nome: Mercado Livre, Amazon, Shopee&lt;br&gt;&lt;/div&gt;&lt;div&gt;CEP: 123524-09, 531256-07, 254561-98&lt;br&gt;&lt;/div&gt;&lt;div&gt;Tipo: Vendas, Serviços, Produção&lt;br&gt;&lt;/div&gt;&lt;div&gt;Nacionalidade: Brasileira, Russa, Francesa&lt;br&gt;&lt;/div&gt;&lt;div&gt;Porte: Pequeno, Médio, Grande&lt;br&gt;&lt;/div&gt;&lt;div&gt;Lucro: 1000, 10000, 100000&lt;br&gt;&lt;/div&gt;&lt;div&gt;&lt;br&gt;&lt;/div&gt;" style="align=left;strokeColor=#d79b00;fillColor=#ffe6cc;spacingLeft=4;spacingRight=4;fontSize=12;verticalAlign=top;resizable=0;rotatable=0;part=1;html=1;whiteSpace=wrap;" parent="4FD4NFaw8G5c-ec8fT4B-86" vertex="1">
          <mxGeometry y="50" width="260" height="140" as="geometry" />
        </mxCell>
        <mxCell id="4FD4NFaw8G5c-ec8fT4B-88" value="" style="endArrow=none;html=1;rounded=0;exitX=1;exitY=0.5;exitDx=0;exitDy=0;entryX=0;entryY=0.5;entryDx=0;entryDy=0;" parent="1" source="4FD4NFaw8G5c-ec8fT4B-80" target="4FD4NFaw8G5c-ec8fT4B-78" edge="1">
          <mxGeometry relative="1" as="geometry">
            <mxPoint x="340" y="1120" as="sourcePoint" />
            <mxPoint x="500" y="1120" as="targetPoint" />
          </mxGeometry>
        </mxCell>
        <mxCell id="4FD4NFaw8G5c-ec8fT4B-89" value="(1,1)" style="text;html=1;align=center;verticalAlign=middle;whiteSpace=wrap;rounded=0;" parent="1" vertex="1">
          <mxGeometry x="375" y="993" width="60" height="30" as="geometry" />
        </mxCell>
        <mxCell id="4FD4NFaw8G5c-ec8fT4B-90" value="(1,N)" style="text;html=1;align=center;verticalAlign=middle;whiteSpace=wrap;rounded=0;" parent="1" vertex="1">
          <mxGeometry x="264" y="752" width="60" height="30" as="geometry" />
        </mxCell>
        <mxCell id="4FD4NFaw8G5c-ec8fT4B-92" value="&lt;div&gt;&lt;br&gt;&lt;/div&gt;&lt;div&gt;(1,N)&lt;br&gt;&lt;/div&gt;" style="text;html=1;align=center;verticalAlign=middle;whiteSpace=wrap;rounded=0;" parent="1" vertex="1">
          <mxGeometry x="270" y="490" width="60" height="30" as="geometry" />
        </mxCell>
        <mxCell id="4FD4NFaw8G5c-ec8fT4B-93" value="&lt;div&gt;&lt;br&gt;&lt;/div&gt;&lt;div&gt;(1,N)&lt;br&gt;&lt;/div&gt;" style="text;html=1;align=center;verticalAlign=middle;whiteSpace=wrap;rounded=0;" parent="1" vertex="1">
          <mxGeometry x="270" y="240" width="60" height="30" as="geometry" />
        </mxCell>
      </root>
    </mxGraphModel>
  </diagram>
</mxfile>
